<?xml version="1.0" encoding="UTF-8"?><svg id="a" xmlns="http://www.w3.org/2000/svg" viewBox="0 0 512 512"><defs><style>.b{fill:#fff;}.c{fill:#7289da;}</style></defs><circle class="c" cx="256" cy="256" r="256"/><path class="b" d="M379.16,167.83c-40.31-30.23-78.65-29.39-78.65-29.39l-3.92,4.48c47.58,14.56,69.7,35.55,69.7,35.55-29.11-15.95-57.66-23.79-84.25-26.87-20.15-2.24-39.47-1.68-56.54,.56-1.68,0-3.08,.28-4.76,.56-9.8,.84-33.59,4.48-63.54,17.63-10.36,4.76-16.51,8.12-16.51,8.12,0,0,23.23-22.11,73.62-36.67l-2.8-3.36s-38.35-.84-78.65,29.39c0,0-40.31,73.06-40.31,163.19,0,0,23.51,40.59,85.37,42.55,0,0,10.36-12.6,18.75-23.23-35.55-10.64-48.98-33.03-48.98-33.03,0,0,2.8,1.96,7.84,4.76,.28,.28,.56,.56,1.12,.84,.84,.56,1.68,.84,2.52,1.4,7,3.92,14,7,20.43,9.52,11.48,4.48,25.19,8.96,41.15,12.04,20.99,3.92,45.63,5.32,72.5,.28,13.16-2.24,26.59-6.16,40.59-12.04,9.8-3.64,20.71-8.96,32.19-16.51,0,0-14,22.95-50.66,33.31,8.4,10.64,18.47,22.67,18.47,22.67,61.86-1.96,85.65-42.55,85.65-42.55,0-90.13-40.31-163.19-40.31-163.19Zm-175.5,137.16c-15.68,0-28.55-14-28.55-31.07s12.6-31.07,28.55-31.07,28.83,14,28.55,31.07c0,17.07-12.6,31.07-28.55,31.07Zm102.17,0c-15.68,0-28.55-14-28.55-31.07s12.6-31.07,28.55-31.07,28.55,14,28.55,31.07-12.6,31.07-28.55,31.07Z"/></svg>