<?xml version="1.0" encoding="UTF-8"?><svg id="a" xmlns="http://www.w3.org/2000/svg" viewBox="0 0 512 512"><defs><style>.b{fill:#fff;}.c{fill:#6e5494;}</style></defs><circle class="c" cx="256" cy="256" r="256"/><path class="b" d="M302.8,365.21c0-19.39-6.34-32.07-13.46-38.49,44.17-5.15,90.54-22.72,90.54-102.56,0-22.69-7.67-41.24-20.38-55.77,2.04-5.26,8.84-26.39-1.97-55.01,0,0-16.62-5.59-54.47,21.31-15.84-4.61-32.8-6.92-49.64-7-16.86,.08-33.83,2.39-49.64,7-37.88-26.9-54.53-21.31-54.53-21.31-10.79,28.62-3.98,49.75-1.94,55.01-12.68,14.53-20.41,33.08-20.41,55.77,0,79.65,46.29,97.48,90.32,102.72-5.67,5.2-10.79,14.35-12.59,27.79-11.3,5.32-40.02,14.49-57.71-17.27,0,0-10.47-19.95-30.37-21.42,0,0-19.37-.26-1.36,12.63,0,0,13,6.39,22.02,30.4,0,0,11.64,40.42,66.8,27.86,.07,13.41,.19,24.26,.24,30.77,15.67,3.98,32.09,6.11,49.01,6.11s33.57-2.15,49.35-6.19c.06-9.77,.23-29.2,.23-52.36Z"/></svg>