<?xml version="1.0" encoding="UTF-8"?><svg id="a" xmlns="http://www.w3.org/2000/svg" viewBox="0 0 512 512"><defs><style>.b{fill:#fff;}.c{fill:#c13584;}</style></defs><circle class="c" cx="256" cy="256" r="256"/><path class="b" d="M179.32,106.9c-39.9,0-72.42,32.52-72.42,72.42v153.36c0,39.9,32.52,72.42,72.42,72.42h153.36c39.9,0,72.42-32.52,72.42-72.42V179.32c0-39.9-32.52-72.42-72.42-72.42H179.32Zm0,25.56h153.36c26.18,0,46.86,20.68,46.86,46.86v153.36c0,26.18-20.68,46.86-46.86,46.86H179.32c-26.18,0-46.86-20.68-46.86-46.86V179.32c0-26.18,20.68-46.86,46.86-46.86Zm161.88,25.56c-9.42,0-17.04,7.62-17.04,17.04s7.62,17.04,17.04,17.04,17.04-7.62,17.04-17.04-7.62-17.04-17.04-17.04Zm-85.2,25.56c-39.84,0-72.42,32.58-72.42,72.42s32.58,72.42,72.42,72.42,72.42-32.58,72.42-72.42-32.58-72.42-72.42-72.42Zm0,25.56c26.03,0,46.86,20.83,46.86,46.86s-20.83,46.86-46.86,46.86-46.86-20.83-46.86-46.86,20.83-46.86,46.86-46.86Z"/></svg>