<?xml version="1.0" encoding="UTF-8"?><svg id="a" xmlns="http://www.w3.org/2000/svg" viewBox="0 0 512 512"><defs><style>.b{fill:#fff;}.c{fill:#ff4500;}</style></defs><circle class="c" cx="256" cy="256" r="256"/><path class="b" d="M387.73,206.38c-9.16,.32-17.88,4.07-24.5,10.37-29.14-19.85-63.38-30.74-98.57-31.5l16.61-79.86,54.79,11.52c1.53,14.06,14.13,24.24,28.19,22.72s24.24-14.13,22.72-28.19c-1.53-14.06-14.13-24.24-28.19-22.72-8.08,.83-15.34,5.54-19.34,12.54l-62.74-12.54c-4.26-.95-8.53,1.72-9.48,6.05v.13l-18.9,88.83c-35.63,.57-70.32,11.52-99.84,31.5-15.02-14.13-38.69-13.43-52.82,1.65-14.13,15.02-13.43,38.69,1.65,52.82,2.93,2.74,6.3,5.09,10.05,6.75-.25,3.75-.25,7.51,0,11.26,0,57.33,66.82,103.98,149.22,103.98s149.22-46.58,149.22-103.98c.25-3.75,.25-7.51,0-11.26,12.85-6.43,20.94-19.66,20.68-34.04-.76-20.62-18.07-36.72-38.75-36.02Zm-217.25,61.66c0-14.13,11.52-25.64,25.64-25.64s25.64,11.52,25.64,25.64-11.52,25.64-25.64,25.64c-14.19-.13-25.64-11.52-25.64-25.64Zm118,0c0-14.13,11.52-25.64,25.64-25.64s25.64,11.52,25.64,25.64-11.52,25.64-25.64,25.64c-14.19-.13-25.64-11.52-25.64-25.64Zm30.71,71.4v-1.02c-18.2,13.68-40.47,20.68-63.25,19.73-22.78,.95-45.05-6.05-63.25-19.73-2.42-2.93-1.97-7.32,.95-9.74,2.55-2.1,6.17-2.1,8.78,0,15.4,11.26,34.17,16.99,53.26,16.1,19.09,1.02,37.93-4.45,53.52-15.59,2.8-2.74,7.38-2.67,10.12,.13,2.74,2.8,2.67,7.38-.13,10.12Z"/></svg>