<svg id="Layer_1" data-name="Layer 1" xmlns="http://www.w3.org/2000/svg" viewBox="0 0 512 512"><defs><style>.cls-1{fill:#1da1f2;}.cls-2{fill:#fff;}</style></defs><circle class="cls-1" cx="256" cy="256" r="256"/><path class="cls-2" d="M206.49,364.46c100.72,0,155.8-83.45,155.8-155.81,0-2.37,0-4.73-.15-7.08a111.37,111.37,0,0,0,27.31-28.35A109.43,109.43,0,0,1,358,181.84a55,55,0,0,0,24.08-30.29,109.88,109.88,0,0,1-34.77,13.29A54.81,54.81,0,0,0,254,214.78a155.51,155.51,0,0,1-112.88-57.21,54.79,54.79,0,0,0,16.95,73.1,54.35,54.35,0,0,1-24.8-6.85c0,.23,0,.46,0,.7A54.78,54.78,0,0,0,177.2,278.2a54.56,54.56,0,0,1-24.73.94,54.82,54.82,0,0,0,51.15,38,110.7,110.7,0,0,1-81.07,22.68,155,155,0,0,0,83.94,24.6"/></svg>