<?xml version="1.0" encoding="UTF-8"?><svg id="a" xmlns="http://www.w3.org/2000/svg" viewBox="0 0 512 512"><defs><style>.b{fill:#fff;}.c{fill:red;}</style></defs><circle class="c" cx="256" cy="256" r="256"/><path class="b" d="M397.73,184.89c-3.41-12.66-13.39-22.65-26.06-26.06-23.13-6.33-115.67-6.33-115.67-6.33,0,0-92.54,0-115.67,6.09-12.42,3.41-22.65,13.64-26.06,26.3-6.09,23.13-6.09,71.11-6.09,71.11,0,0,0,48.22,6.09,71.11,3.41,12.66,13.39,22.65,26.06,26.06,23.38,6.33,115.67,6.33,115.67,6.33,0,0,92.54,0,115.67-6.09,12.66-3.41,22.65-13.39,26.06-26.06,6.09-23.13,6.09-71.11,6.09-71.11,0,0,.24-48.22-6.09-71.35Zm-171.2,115.43v-88.64l76.95,44.32-76.95,44.32Z"/></svg>